Coordinates
version=1
nRows=27
nColumns=12
inDegrees=yes

Units are S.I. units (second, meters, Newtons, ...)
Angles are in degrees

endheader
time	SC_y	SC_z	SC_x	AC_y	AC_z	AC_x	GH_y	GH_z	GH_yy	EL_x	PS_y
       0.0              -32.37           37.2          72.92          41.43         -6.448          16.52         -49.45          67.26         -116.9          104.6          87.23
   0.03236              -32.37           37.2          72.92          41.43         -6.448          16.52         -49.44          67.26         -116.8          104.6          87.24
   0.06472              -32.37           37.2          72.92          41.43         -6.447          16.52         -49.43          67.25         -116.8          104.6          87.25
   0.09708              -32.36           37.2          72.92          41.43         -6.447          16.52         -49.42          67.25         -116.7          104.6          87.26
    0.1294              -32.36           37.2          72.92          41.43         -6.446          16.51         -49.41          67.24         -116.7          104.6          87.27
    0.1618              -32.36           37.2          72.92          41.43         -6.446          16.51          -49.4          67.24         -116.6          104.6          87.28
    0.1942              -32.35           37.2          72.91          41.43         -6.445          16.51         -49.39          67.23         -116.6          104.6          87.29
    0.2265              -32.35           37.2          72.91          41.43         -6.444          16.51         -49.37          67.23         -116.5          104.6           87.3
    0.2589              -32.35           37.2          72.91          41.43         -6.444           16.5         -49.36          67.22         -116.4          104.6          87.31
    0.2912              -32.34          37.19          72.91          41.43         -6.443           16.5         -49.34          67.21         -116.4          104.7          87.33
    0.3236              -32.34          37.19          72.91          41.42         -6.442           16.5         -49.33          67.21         -116.3          104.7          87.34
     0.356              -32.33          37.19          72.91          41.42         -6.441          16.49         -49.31           67.2         -116.2          104.7          87.36
    0.3883              -32.33          37.19          72.91          41.42          -6.44          16.49         -49.29          67.19         -116.1          104.7          87.37
    0.4207              -32.32          37.19          72.91          41.42         -6.439          16.48         -49.27          67.18         -116.1          104.7          87.39
     0.453              -32.31          37.19          72.91          41.42         -6.437          16.48         -49.25          67.17         -116.0          104.7          87.41
    0.4854              -32.31          37.19          72.91          41.42         -6.436          16.47         -49.22          67.16         -115.8          104.7          87.43
    0.5178               -32.3          37.19           72.9          41.42         -6.435          16.47         -49.19          67.15         -115.7          104.7          87.46
    0.5501              -32.29          37.19           72.9          41.42         -6.433          16.46         -49.16          67.14         -115.6          104.7          87.48
    0.5825              -32.28          37.19           72.9          41.41         -6.432          16.45         -49.13          67.13         -115.5          104.7          87.51
    0.6148              -32.27          37.19           72.9          41.41          -6.43          16.45          -49.1          67.11         -115.3          104.7          87.54
    0.6472              -32.26          37.18           72.9          41.41         -6.428          16.44         -49.06          67.09         -115.2          104.7          87.57
    0.6796              -32.25          37.18           72.9          41.41         -6.425          16.43         -49.02          67.08         -115.0          104.7          87.61
    0.7119              -32.23          37.18          72.89           41.4         -6.423          16.42         -48.97          67.06         -114.8          104.7          87.65
    0.7443              -32.22          37.18          72.89           41.4          -6.42          16.41         -48.92          67.04         -114.5          104.7          87.69
    0.7766               -32.2          37.18          72.89           41.4         -6.417          16.39         -48.86          67.01         -114.3          104.7          87.74
     0.809              -32.18          37.18          72.88          41.39         -6.414          16.38          -48.8          66.98         -114.0          104.7           87.8
    0.8414              -32.16          37.17          72.88          41.39          -6.41          16.36         -48.73          66.95         -113.7          104.7          87.86
